# xmcd CD database file
#
# Track frame offsets:
#	150
#	16980
#	35989
#	52429
#	71746
#	89413
#	108795
#	139305
#	159806
#
# Disc length: 2384 seconds
#
# Revision: 0
# Processed by: cddbd v1.5.2PL0 Copyright (c) Steve Scherf et al.
# Submitted via: CDex 1.79
#
DISCID=7e094e09
DTITLE=Wade Bowen - Live At Billy Bob`s Texas [CD 1)
DYEAR=2010
DGENRE=Country
TTITLE0=You Had Me At My Best
TTITLE1=One Step Closer
TTITLE2=Get Away
TTITLE3=Trouble
TTITLE4=Lay It All On You
TTITLE5=Red Headed Woman
TTITLE6=Not Finished Yet
TTITLE7=Daddy And The Devil
TTITLE8=If We Ever Make It Home
EXTD=YEAR: 2010
EXTT0=
EXTT1=
EXTT2=
EXTT3=
EXTT4=
EXTT5=
EXTT6=
EXTT7=
EXTT8=
PLAYORDER=
